<svg xmlns="http://www.w3.org/2000/svg" width="495.744" height="443.945" viewBox="0 0 495.744 443.945">
  <g id="Group_22940" data-name="Group 22940" transform="translate(-75.256 -4763.055)">
    <path id="Path_10632" data-name="Path 10632" d="M265.489,117.29V15.259L239.227,41.522v91.225a106.445,106.445,0,0,1-.625,11.428Zm-121.954,73.1v26.572a84.269,84.269,0,0,0,26.272-7.886V110.941l-26.272,26.272v53.173ZM131.926,47.865h-101A133.458,133.458,0,0,0,13.779,74.11l26.313.006h65.183l3.182-.006.01.006.01-.011,8.47-8.464L131.92,50.667l2.8-2.8-.015-.006ZM74.11,143.55V191.4h47.843v26.256l-26.26.005-36.217-.005H47.849V206.034l-.006-36.217.006-26.267ZM26.267,169.817l-.005-26.267L.005,143.535,0,143.55v26.272l.005,21.571L0,217.655v21.577L.005,265.5l26.267.005H47.849l26.267-.005,21.571.005h26.266l.016-.005-.016-26.256-26.26-.005-21.572.005H41.76l-15.489-.01-.01-15.489V191.389Zm69.425,0h26.277l-.016-26.267-26.26-.015ZM156.314,26.282h-7.793l-15.775-.005-.718.005H53.734A131.782,131.782,0,0,1,132.742,0l15.774.027h34.055l30.5-.022L216.75.01l6.723.005,26.745.006L225.953,24.286l-2,2L202.379,47.858,154.548,95.692,142.4,107.843l-.016.015-14.1,14.1h-6.322l-24.645.005H91.127l26.266-26.272,14.1-14.106.447-.436.26-.26,54.608-54.608ZM5.329,95.7A130.388,130.388,0,0,0,.463,121.964h26.36l21.716-.01,13.305.01-.608-.614L86.885,95.7H5.329Zm212.315,43.861v57.254q1.553-2.051,3.011-4.176l.005.005,43.861-43.861c-7.555,61.995-58.288,111.15-120.986,116.26v-26.36A105.762,105.762,0,0,0,191.388,221.5V89.36L217.645,63.1v69.644c0,2.293-.1,4.56-.276,6.811Z" transform="translate(75.256 4763.055)" fill="#e7e7e7" fill-rule="evenodd" opacity="0.5"/>
    <path id="Subtraction_1" data-name="Subtraction 1" d="M144,15H465V424H15V144A129,129,0,0,1,144,15Z" transform="translate(106 4783)" fill="#e7e7e7"/>
  </g>
</svg>
